<svg width="12" height="14" viewBox="0 0 12 14" fill="none" xmlns="http://www.w3.org/2000/svg">
<path d="M10.6667 2.00008H7.88C7.6 1.22675 6.86667 0.666748 6 0.666748C5.13333 0.666748 4.4 1.22675 4.12 2.00008H1.33333C0.6 2.00008 0 2.60008 0 3.33341V12.6667C0 13.4001 0.6 14.0001 1.33333 14.0001H10.6667C11.4 14.0001 12 13.4001 12 12.6667V3.33341C12 2.60008 11.4 2.00008 10.6667 2.00008ZM6 2.00008C6.36667 2.00008 6.66667 2.30008 6.66667 2.66675C6.66667 3.03341 6.36667 3.33341 6 3.33341C5.63333 3.33341 5.33333 3.03341 5.33333 2.66675C5.33333 2.30008 5.63333 2.00008 6 2.00008ZM7.33333 11.3334H2.66667V10.0001H7.33333V11.3334ZM9.33333 8.66675H2.66667V7.33342H9.33333V8.66675ZM9.33333 6.00008H2.66667V4.66675H9.33333V6.00008Z" fill="#170E7D"/>
</svg>
