<svg width="14" height="14" viewBox="0 0 14 14" fill="none" xmlns="http://www.w3.org/2000/svg">
<path d="M11.6667 1.66634H10.3333V0.999674C10.3333 0.822863 10.2631 0.653294 10.1381 0.52827C10.0131 0.403246 9.84349 0.333008 9.66668 0.333008C9.48987 0.333008 9.3203 0.403246 9.19527 0.52827C9.07025 0.653294 9.00001 0.822863 9.00001 0.999674V1.66634H5.00001V0.999674C5.00001 0.822863 4.92977 0.653294 4.80475 0.52827C4.67972 0.403246 4.51015 0.333008 4.33334 0.333008C4.15653 0.333008 3.98696 0.403246 3.86194 0.52827C3.73691 0.653294 3.66668 0.822863 3.66668 0.999674V1.66634H2.33334C1.80291 1.66634 1.2942 1.87705 0.91913 2.25213C0.544057 2.6272 0.333344 3.13591 0.333344 3.66634V11.6663C0.333344 12.1968 0.544057 12.7055 0.91913 13.0806C1.2942 13.4556 1.80291 13.6663 2.33334 13.6663H11.6667C12.1971 13.6663 12.7058 13.4556 13.0809 13.0806C13.456 12.7055 13.6667 12.1968 13.6667 11.6663V3.66634C13.6667 3.13591 13.456 2.6272 13.0809 2.25213C12.7058 1.87705 12.1971 1.66634 11.6667 1.66634ZM12.3333 11.6663C12.3333 11.8432 12.2631 12.0127 12.1381 12.1377C12.0131 12.2628 11.8435 12.333 11.6667 12.333H2.33334C2.15653 12.333 1.98696 12.2628 1.86194 12.1377C1.73691 12.0127 1.66668 11.8432 1.66668 11.6663V6.99967H12.3333V11.6663ZM12.3333 5.66634H1.66668V3.66634C1.66668 3.48953 1.73691 3.31996 1.86194 3.19494C1.98696 3.06991 2.15653 2.99967 2.33334 2.99967H3.66668V3.66634C3.66668 3.84315 3.73691 4.01272 3.86194 4.13775C3.98696 4.26277 4.15653 4.33301 4.33334 4.33301C4.51015 4.33301 4.67972 4.26277 4.80475 4.13775C4.92977 4.01272 5.00001 3.84315 5.00001 3.66634V2.99967H9.00001V3.66634C9.00001 3.84315 9.07025 4.01272 9.19527 4.13775C9.3203 4.26277 9.48987 4.33301 9.66668 4.33301C9.84349 4.33301 10.0131 4.26277 10.1381 4.13775C10.2631 4.01272 10.3333 3.84315 10.3333 3.66634V2.99967H11.6667C11.8435 2.99967 12.0131 3.06991 12.1381 3.19494C12.2631 3.31996 12.3333 3.48953 12.3333 3.66634V5.66634Z" fill="#6C63FF"/>
</svg>
