<svg width="16" height="16" viewBox="0 0 16 16" fill="none" xmlns="http://www.w3.org/2000/svg">
<path fill-rule="evenodd" clip-rule="evenodd" d="M6.96356 1.21572C6.42729 1.21572 5.97107 1.58837 5.843 2.09065H10.1492C10.0211 1.58837 9.56486 1.21572 9.02859 1.21572H6.96356ZM11.3657 2.09012H12.9505C14.6313 2.09012 16 3.47543 16 5.17668C16 5.17668 15.952 5.89688 15.936 6.89981C15.9344 6.97921 15.8959 7.05698 15.8327 7.10396C15.4477 7.38832 15.0955 7.62325 15.0635 7.63945C13.7349 8.53059 12.1909 9.15762 10.5461 9.46952C10.4388 9.49058 10.3332 9.43469 10.2787 9.33909C9.81771 8.54031 8.95648 8.02021 7.996 8.02021C7.04192 8.02021 6.17269 8.53464 5.69805 9.33423C5.64282 9.42821 5.53877 9.48248 5.43232 9.46223C3.8011 9.14952 2.25713 8.5233 0.936468 7.64756L0.168084 7.11288C0.104052 7.07237 0.064032 6.99946 0.064032 6.91845C0.04002 6.50528 0 5.17668 0 5.17668C0 3.47543 1.36868 2.09012 3.04952 2.09012H4.62631C4.77839 0.915438 5.76288 0 6.96348 0H9.02851C10.2291 0 11.2136 0.915438 11.3657 2.09012ZM15.7279 8.65123L15.6959 8.66743C14.0791 9.753 12.1341 10.474 10.0931 10.7738C9.80493 10.8143 9.51679 10.6279 9.43675 10.3363C9.26066 9.67199 8.69238 9.23452 8.01204 9.23452H8.00403H7.98803C7.30768 9.23452 6.7394 9.67199 6.56331 10.3363C6.48327 10.6279 6.19513 10.8143 5.90698 10.7738C3.86596 10.474 1.92099 9.753 0.304184 8.66743C0.29618 8.65933 0.21614 8.61073 0.152108 8.65123C0.0800716 8.69174 0.0800716 8.78895 0.0800716 8.78895L0.1361 12.9206C0.1361 14.6218 1.49678 15.999 3.17762 15.999H12.8144C14.4953 15.999 15.856 14.6218 15.856 12.9206L15.92 8.78895C15.92 8.78895 15.92 8.69174 15.848 8.65123C15.8079 8.62693 15.7599 8.63503 15.7279 8.65123ZM8.59647 12.0459C8.59647 12.3861 8.33233 12.6535 7.99617 12.6535C7.668 12.6535 7.39586 12.3861 7.39586 12.0459V11.0008C7.39586 10.6687 7.668 10.3932 7.99617 10.3932C8.33233 10.3932 8.59647 10.6687 8.59647 11.0008V12.0459Z" fill="#170E7D"/>
</svg>
