<svg width="16" height="16" viewBox="0 0 16 16" fill="none" xmlns="http://www.w3.org/2000/svg">
<path d="M11.9998 6.99992V3.99992L10.5932 4.70659C10.6882 5.09891 10.6928 5.50767 10.6068 5.90206C10.5208 6.29644 10.3463 6.66614 10.0966 6.98328C9.84686 7.30041 9.52838 7.5567 9.16517 7.73281C8.80195 7.90892 8.40349 8.00025 7.99984 7.99992C7.59618 8.00025 7.19772 7.90892 6.83451 7.73281C6.47129 7.5567 6.15281 7.30041 5.90309 6.98328C5.65336 6.66614 5.47891 6.29644 5.39288 5.90206C5.30686 5.50767 5.31152 5.09891 5.4065 4.70659L3.33317 3.66659L7.99984 1.33325L12.6665 3.66659V6.99992H11.9998ZM7.99984 5.99992L6.6665 5.33325C6.6665 6.06659 7.2665 6.66659 7.99984 6.66659C8.73317 6.66659 9.33317 6.06659 9.33317 5.33325L7.99984 5.99992ZM9.83317 3.61325L8.1065 2.73325L6.31317 3.64659L8.0465 4.52659L9.83317 3.61325ZM7.99984 8.66659C9.77984 8.66659 13.3332 9.55325 13.3332 11.3333V13.3333H2.6665V11.3333C2.6665 9.55325 6.21984 8.66659 7.99984 8.66659ZM7.99984 9.93325C5.99984 9.93325 3.93317 10.9066 3.93317 11.3333V12.0666H12.0665V11.3333C12.0665 10.9066 9.97984 9.93325 7.99984 9.93325Z" fill="#170E7D"/>
</svg>
