<svg width="28" height="28" viewBox="0 0 28 28" fill="none" xmlns="http://www.w3.org/2000/svg">
<path d="M14 23.6003C10.6667 23.6003 7.71999 21.8937 5.99999 19.3337C6.03999 16.667 11.3333 15.2003 14 15.2003C16.6667 15.2003 21.96 16.667 22 19.3337C21.1185 20.6462 19.9278 21.7219 18.5327 22.4659C17.1377 23.2099 15.5811 23.5995 14 23.6003ZM14 4.66699C15.0609 4.66699 16.0783 5.08842 16.8284 5.83856C17.5786 6.58871 18 7.60613 18 8.66699C18 9.72786 17.5786 10.7453 16.8284 11.4954C16.0783 12.2456 15.0609 12.667 14 12.667C12.9391 12.667 11.9217 12.2456 11.1716 11.4954C10.4214 10.7453 9.99999 9.72786 9.99999 8.66699C9.99999 7.60613 10.4214 6.58871 11.1716 5.83856C11.9217 5.08842 12.9391 4.66699 14 4.66699ZM14 0.666992C12.249 0.666992 10.5152 1.01187 8.89754 1.68193C7.27987 2.35199 5.81001 3.33412 4.5719 4.57223C2.07141 7.07272 0.666656 10.4641 0.666656 14.0003C0.666656 17.5365 2.07141 20.9279 4.5719 23.4284C5.81001 24.6665 7.27987 25.6487 8.89754 26.3187C10.5152 26.9888 12.249 27.3337 14 27.3337C17.5362 27.3337 20.9276 25.9289 23.4281 23.4284C25.9286 20.9279 27.3333 17.5365 27.3333 14.0003C27.3333 6.62699 21.3333 0.666992 14 0.666992Z" fill="#9F9F9F"/>
</svg>
